<mxfile host="app.diagrams.net" agent="Mozilla/5.0 (Windows NT 10.0; Win64; x64) AppleWebKit/537.36 (KHTML, like Gecko) Chrome/133.0.0.0 Safari/537.36 Edg/133.0.0.0" version="26.0.16">
  <diagram id="C5RBs43oDa-KdzZeNtuy" name="Page-1">
    <mxGraphModel dx="1042" dy="613" grid="1" gridSize="10" guides="1" tooltips="1" connect="1" arrows="1" fold="1" page="1" pageScale="1" pageWidth="827" pageHeight="1169" math="0" shadow="0">
      <root>
        <mxCell id="WIyWlLk6GJQsqaUBKTNV-0" />
        <mxCell id="WIyWlLk6GJQsqaUBKTNV-1" parent="WIyWlLk6GJQsqaUBKTNV-0" />
        <mxCell id="zkfFHV4jXpPFQw0GAbJ--0" value="+UserAuthentication" style="swimlane;fontStyle=2;align=center;verticalAlign=top;childLayout=stackLayout;horizontal=1;startSize=26;horizontalStack=0;resizeParent=1;resizeLast=0;collapsible=1;marginBottom=0;rounded=0;shadow=0;strokeWidth=1;" parent="WIyWlLk6GJQsqaUBKTNV-1" vertex="1">
          <mxGeometry x="20" y="40" width="360" height="380" as="geometry">
            <mxRectangle x="230" y="140" width="160" height="26" as="alternateBounds" />
          </mxGeometry>
        </mxCell>
        <mxCell id="zkfFHV4jXpPFQw0GAbJ--1" value="- auth_token_expiry: int" style="text;align=left;verticalAlign=top;spacingLeft=4;spacingRight=4;overflow=hidden;rotatable=0;points=[[0,0.5],[1,0.5]];portConstraint=eastwest;" parent="zkfFHV4jXpPFQw0GAbJ--0" vertex="1">
          <mxGeometry y="26" width="360" height="26" as="geometry" />
        </mxCell>
        <mxCell id="zkfFHV4jXpPFQw0GAbJ--2" value="- password_salt: str" style="text;align=left;verticalAlign=top;spacingLeft=4;spacingRight=4;overflow=hidden;rotatable=0;points=[[0,0.5],[1,0.5]];portConstraint=eastwest;rounded=0;shadow=0;html=0;" parent="zkfFHV4jXpPFQw0GAbJ--0" vertex="1">
          <mxGeometry y="52" width="360" height="26" as="geometry" />
        </mxCell>
        <mxCell id="zkfFHV4jXpPFQw0GAbJ--4" value="" style="line;html=1;strokeWidth=1;align=left;verticalAlign=middle;spacingTop=-1;spacingLeft=3;spacingRight=3;rotatable=0;labelPosition=right;points=[];portConstraint=eastwest;" parent="zkfFHV4jXpPFQw0GAbJ--0" vertex="1">
          <mxGeometry y="78" width="360" height="8" as="geometry" />
        </mxCell>
        <mxCell id="zkfFHV4jXpPFQw0GAbJ--5" value="+ register_user(username: str, email: str, password: str): bool" style="text;align=left;verticalAlign=top;spacingLeft=4;spacingRight=4;overflow=hidden;rotatable=0;points=[[0,0.5],[1,0.5]];portConstraint=eastwest;" parent="zkfFHV4jXpPFQw0GAbJ--0" vertex="1">
          <mxGeometry y="86" width="360" height="26" as="geometry" />
        </mxCell>
        <mxCell id="rlQCvOb7wK49Swuap4eT-0" value="+ login_user(email: str, password: str): str" style="text;align=left;verticalAlign=top;spacingLeft=4;spacingRight=4;overflow=hidden;rotatable=0;points=[[0,0.5],[1,0.5]];portConstraint=eastwest;" vertex="1" parent="zkfFHV4jXpPFQw0GAbJ--0">
          <mxGeometry y="112" width="360" height="26" as="geometry" />
        </mxCell>
        <mxCell id="rlQCvOb7wK49Swuap4eT-7" value="+ logout_user(user_id: int): bool" style="text;align=left;verticalAlign=top;spacingLeft=4;spacingRight=4;overflow=hidden;rotatable=0;points=[[0,0.5],[1,0.5]];portConstraint=eastwest;" vertex="1" parent="zkfFHV4jXpPFQw0GAbJ--0">
          <mxGeometry y="138" width="360" height="26" as="geometry" />
        </mxCell>
        <mxCell id="rlQCvOb7wK49Swuap4eT-8" value="+ reset_password(email: str): bool" style="text;align=left;verticalAlign=top;spacingLeft=4;spacingRight=4;overflow=hidden;rotatable=0;points=[[0,0.5],[1,0.5]];portConstraint=eastwest;" vertex="1" parent="zkfFHV4jXpPFQw0GAbJ--0">
          <mxGeometry y="164" width="360" height="26" as="geometry" />
        </mxCell>
        <mxCell id="rlQCvOb7wK49Swuap4eT-9" value="+ validate_jwt(token: str): dict" style="text;align=left;verticalAlign=top;spacingLeft=4;spacingRight=4;overflow=hidden;rotatable=0;points=[[0,0.5],[1,0.5]];portConstraint=eastwest;" vertex="1" parent="zkfFHV4jXpPFQw0GAbJ--0">
          <mxGeometry y="190" width="360" height="26" as="geometry" />
        </mxCell>
        <mxCell id="rlQCvOb7wK49Swuap4eT-10" value="+ refresh_jwt(token: str): str" style="text;align=left;verticalAlign=top;spacingLeft=4;spacingRight=4;overflow=hidden;rotatable=0;points=[[0,0.5],[1,0.5]];portConstraint=eastwest;" vertex="1" parent="zkfFHV4jXpPFQw0GAbJ--0">
          <mxGeometry y="216" width="360" height="26" as="geometry" />
        </mxCell>
        <mxCell id="rlQCvOb7wK49Swuap4eT-11" value="- encrypt_password(password: str): str" style="text;align=left;verticalAlign=top;spacingLeft=4;spacingRight=4;overflow=hidden;rotatable=0;points=[[0,0.5],[1,0.5]];portConstraint=eastwest;" vertex="1" parent="zkfFHV4jXpPFQw0GAbJ--0">
          <mxGeometry y="242" width="360" height="26" as="geometry" />
        </mxCell>
        <mxCell id="rlQCvOb7wK49Swuap4eT-12" value="- verify_password(password: str, hashed_password: str): bool" style="text;align=left;verticalAlign=top;spacingLeft=4;spacingRight=4;overflow=hidden;rotatable=0;points=[[0,0.5],[1,0.5]];portConstraint=eastwest;" vertex="1" parent="zkfFHV4jXpPFQw0GAbJ--0">
          <mxGeometry y="268" width="360" height="26" as="geometry" />
        </mxCell>
        <mxCell id="rlQCvOb7wK49Swuap4eT-13" value="+ confirm_is_email(email: str): bool" style="text;align=left;verticalAlign=top;spacingLeft=4;spacingRight=4;overflow=hidden;rotatable=0;points=[[0,0.5],[1,0.5]];portConstraint=eastwest;" vertex="1" parent="zkfFHV4jXpPFQw0GAbJ--0">
          <mxGeometry y="294" width="360" height="26" as="geometry" />
        </mxCell>
        <mxCell id="rlQCvOb7wK49Swuap4eT-14" value="+ existing_user(username: str): bool" style="text;align=left;verticalAlign=top;spacingLeft=4;spacingRight=4;overflow=hidden;rotatable=0;points=[[0,0.5],[1,0.5]];portConstraint=eastwest;" vertex="1" parent="zkfFHV4jXpPFQw0GAbJ--0">
          <mxGeometry y="320" width="360" height="26" as="geometry" />
        </mxCell>
        <mxCell id="rlQCvOb7wK49Swuap4eT-15" value="+ check_pass_strength(password: str): bool" style="text;align=left;verticalAlign=top;spacingLeft=4;spacingRight=4;overflow=hidden;rotatable=0;points=[[0,0.5],[1,0.5]];portConstraint=eastwest;" vertex="1" parent="zkfFHV4jXpPFQw0GAbJ--0">
          <mxGeometry y="346" width="360" height="26" as="geometry" />
        </mxCell>
        <mxCell id="zkfFHV4jXpPFQw0GAbJ--17" value="+UserProfile" style="swimlane;fontStyle=0;align=center;verticalAlign=top;childLayout=stackLayout;horizontal=1;startSize=26;horizontalStack=0;resizeParent=1;resizeLast=0;collapsible=1;marginBottom=0;rounded=0;shadow=0;strokeWidth=1;" parent="WIyWlLk6GJQsqaUBKTNV-1" vertex="1">
          <mxGeometry x="520" y="40" width="392" height="354" as="geometry">
            <mxRectangle x="508" y="120" width="160" height="26" as="alternateBounds" />
          </mxGeometry>
        </mxCell>
        <mxCell id="zkfFHV4jXpPFQw0GAbJ--18" value="- user_id: int" style="text;align=left;verticalAlign=top;spacingLeft=4;spacingRight=4;overflow=hidden;rotatable=0;points=[[0,0.5],[1,0.5]];portConstraint=eastwest;" parent="zkfFHV4jXpPFQw0GAbJ--17" vertex="1">
          <mxGeometry y="26" width="392" height="26" as="geometry" />
        </mxCell>
        <mxCell id="zkfFHV4jXpPFQw0GAbJ--19" value="- username: str" style="text;align=left;verticalAlign=top;spacingLeft=4;spacingRight=4;overflow=hidden;rotatable=0;points=[[0,0.5],[1,0.5]];portConstraint=eastwest;rounded=0;shadow=0;html=0;" parent="zkfFHV4jXpPFQw0GAbJ--17" vertex="1">
          <mxGeometry y="52" width="392" height="26" as="geometry" />
        </mxCell>
        <mxCell id="zkfFHV4jXpPFQw0GAbJ--20" value="- email: str" style="text;align=left;verticalAlign=top;spacingLeft=4;spacingRight=4;overflow=hidden;rotatable=0;points=[[0,0.5],[1,0.5]];portConstraint=eastwest;rounded=0;shadow=0;html=0;" parent="zkfFHV4jXpPFQw0GAbJ--17" vertex="1">
          <mxGeometry y="78" width="392" height="26" as="geometry" />
        </mxCell>
        <mxCell id="zkfFHV4jXpPFQw0GAbJ--21" value="- avatar: str" style="text;align=left;verticalAlign=top;spacingLeft=4;spacingRight=4;overflow=hidden;rotatable=0;points=[[0,0.5],[1,0.5]];portConstraint=eastwest;rounded=0;shadow=0;html=0;" parent="zkfFHV4jXpPFQw0GAbJ--17" vertex="1">
          <mxGeometry y="104" width="392" height="26" as="geometry" />
        </mxCell>
        <mxCell id="zkfFHV4jXpPFQw0GAbJ--22" value="- bio: str" style="text;align=left;verticalAlign=top;spacingLeft=4;spacingRight=4;overflow=hidden;rotatable=0;points=[[0,0.5],[1,0.5]];portConstraint=eastwest;rounded=0;shadow=0;html=0;" parent="zkfFHV4jXpPFQw0GAbJ--17" vertex="1">
          <mxGeometry y="130" width="392" height="30" as="geometry" />
        </mxCell>
        <mxCell id="rlQCvOb7wK49Swuap4eT-19" value="- privacy_level: str" style="text;align=left;verticalAlign=top;spacingLeft=4;spacingRight=4;overflow=hidden;rotatable=0;points=[[0,0.5],[1,0.5]];portConstraint=eastwest;rounded=0;shadow=0;html=0;" vertex="1" parent="zkfFHV4jXpPFQw0GAbJ--17">
          <mxGeometry y="160" width="392" height="30" as="geometry" />
        </mxCell>
        <mxCell id="zkfFHV4jXpPFQw0GAbJ--23" value="" style="line;html=1;strokeWidth=1;align=left;verticalAlign=middle;spacingTop=-1;spacingLeft=3;spacingRight=3;rotatable=0;labelPosition=right;points=[];portConstraint=eastwest;" parent="zkfFHV4jXpPFQw0GAbJ--17" vertex="1">
          <mxGeometry y="190" width="392" height="8" as="geometry" />
        </mxCell>
        <mxCell id="zkfFHV4jXpPFQw0GAbJ--24" value="+ create_profile(user_id: int, username: str, avatar: str, bio: str): bool" style="text;align=left;verticalAlign=top;spacingLeft=4;spacingRight=4;overflow=hidden;rotatable=0;points=[[0,0.5],[1,0.5]];portConstraint=eastwest;" parent="zkfFHV4jXpPFQw0GAbJ--17" vertex="1">
          <mxGeometry y="198" width="392" height="26" as="geometry" />
        </mxCell>
        <mxCell id="zkfFHV4jXpPFQw0GAbJ--25" value="+ update_profile(user_id: int, username: str, avatar: str, bio: str): bool" style="text;align=left;verticalAlign=top;spacingLeft=4;spacingRight=4;overflow=hidden;rotatable=0;points=[[0,0.5],[1,0.5]];portConstraint=eastwest;" parent="zkfFHV4jXpPFQw0GAbJ--17" vertex="1">
          <mxGeometry y="224" width="392" height="26" as="geometry" />
        </mxCell>
        <mxCell id="rlQCvOb7wK49Swuap4eT-20" value="+ get_profile(user_id: int): dict" style="text;align=left;verticalAlign=top;spacingLeft=4;spacingRight=4;overflow=hidden;rotatable=0;points=[[0,0.5],[1,0.5]];portConstraint=eastwest;" vertex="1" parent="zkfFHV4jXpPFQw0GAbJ--17">
          <mxGeometry y="250" width="392" height="26" as="geometry" />
        </mxCell>
        <mxCell id="rlQCvOb7wK49Swuap4eT-21" value="+ delete_profile(user_id: int): bool" style="text;align=left;verticalAlign=top;spacingLeft=4;spacingRight=4;overflow=hidden;rotatable=0;points=[[0,0.5],[1,0.5]];portConstraint=eastwest;" vertex="1" parent="zkfFHV4jXpPFQw0GAbJ--17">
          <mxGeometry y="276" width="392" height="26" as="geometry" />
        </mxCell>
        <mxCell id="rlQCvOb7wK49Swuap4eT-22" value="+ update_privacy_settings(user_id: int, privacy_level: str): bool" style="text;align=left;verticalAlign=top;spacingLeft=4;spacingRight=4;overflow=hidden;rotatable=0;points=[[0,0.5],[1,0.5]];portConstraint=eastwest;" vertex="1" parent="zkfFHV4jXpPFQw0GAbJ--17">
          <mxGeometry y="302" width="392" height="26" as="geometry" />
        </mxCell>
        <mxCell id="rlQCvOb7wK49Swuap4eT-42" value="- validate_username(username: str): bool " style="text;align=left;verticalAlign=top;spacingLeft=4;spacingRight=4;overflow=hidden;rotatable=0;points=[[0,0.5],[1,0.5]];portConstraint=eastwest;" vertex="1" parent="zkfFHV4jXpPFQw0GAbJ--17">
          <mxGeometry y="328" width="392" height="26" as="geometry" />
        </mxCell>
        <mxCell id="rlQCvOb7wK49Swuap4eT-26" value="" style="endArrow=diamondThin;endFill=1;endSize=24;html=1;rounded=1;entryX=1;entryY=0.5;entryDx=0;entryDy=0;exitX=0.007;exitY=0.342;exitDx=0;exitDy=0;startArrow=open;startFill=0;curved=0;strokeWidth=2;exitPerimeter=0;" edge="1" parent="WIyWlLk6GJQsqaUBKTNV-1" source="zkfFHV4jXpPFQw0GAbJ--23" target="rlQCvOb7wK49Swuap4eT-9">
          <mxGeometry width="160" relative="1" as="geometry">
            <mxPoint x="470" y="230" as="sourcePoint" />
            <mxPoint x="510" y="320" as="targetPoint" />
            <Array as="points">
              <mxPoint x="450" y="233" />
              <mxPoint x="450" y="243" />
            </Array>
          </mxGeometry>
        </mxCell>
        <mxCell id="rlQCvOb7wK49Swuap4eT-29" value="+FriendSystem" style="swimlane;fontStyle=0;align=center;verticalAlign=top;childLayout=stackLayout;horizontal=1;startSize=26;horizontalStack=0;resizeParent=1;resizeLast=0;collapsible=1;marginBottom=0;rounded=0;shadow=0;strokeWidth=1;" vertex="1" parent="WIyWlLk6GJQsqaUBKTNV-1">
          <mxGeometry x="1030" y="40" width="392" height="300" as="geometry">
            <mxRectangle x="508" y="120" width="160" height="26" as="alternateBounds" />
          </mxGeometry>
        </mxCell>
        <mxCell id="rlQCvOb7wK49Swuap4eT-30" value="- friendship_id: int" style="text;align=left;verticalAlign=top;spacingLeft=4;spacingRight=4;overflow=hidden;rotatable=0;points=[[0,0.5],[1,0.5]];portConstraint=eastwest;" vertex="1" parent="rlQCvOb7wK49Swuap4eT-29">
          <mxGeometry y="26" width="392" height="26" as="geometry" />
        </mxCell>
        <mxCell id="rlQCvOb7wK49Swuap4eT-31" value="- user_id: int" style="text;align=left;verticalAlign=top;spacingLeft=4;spacingRight=4;overflow=hidden;rotatable=0;points=[[0,0.5],[1,0.5]];portConstraint=eastwest;rounded=0;shadow=0;html=0;" vertex="1" parent="rlQCvOb7wK49Swuap4eT-29">
          <mxGeometry y="52" width="392" height="26" as="geometry" />
        </mxCell>
        <mxCell id="rlQCvOb7wK49Swuap4eT-32" value="- friend_id: int" style="text;align=left;verticalAlign=top;spacingLeft=4;spacingRight=4;overflow=hidden;rotatable=0;points=[[0,0.5],[1,0.5]];portConstraint=eastwest;rounded=0;shadow=0;html=0;" vertex="1" parent="rlQCvOb7wK49Swuap4eT-29">
          <mxGeometry y="78" width="392" height="26" as="geometry" />
        </mxCell>
        <mxCell id="rlQCvOb7wK49Swuap4eT-33" value="- status: str" style="text;align=left;verticalAlign=top;spacingLeft=4;spacingRight=4;overflow=hidden;rotatable=0;points=[[0,0.5],[1,0.5]];portConstraint=eastwest;rounded=0;shadow=0;html=0;" vertex="1" parent="rlQCvOb7wK49Swuap4eT-29">
          <mxGeometry y="104" width="392" height="26" as="geometry" />
        </mxCell>
        <mxCell id="rlQCvOb7wK49Swuap4eT-36" value="" style="line;html=1;strokeWidth=1;align=left;verticalAlign=middle;spacingTop=-1;spacingLeft=3;spacingRight=3;rotatable=0;labelPosition=right;points=[];portConstraint=eastwest;" vertex="1" parent="rlQCvOb7wK49Swuap4eT-29">
          <mxGeometry y="130" width="392" height="8" as="geometry" />
        </mxCell>
        <mxCell id="rlQCvOb7wK49Swuap4eT-37" value="+ send_friend_request(user_id: int, friend_id: int): bool" style="text;align=left;verticalAlign=top;spacingLeft=4;spacingRight=4;overflow=hidden;rotatable=0;points=[[0,0.5],[1,0.5]];portConstraint=eastwest;" vertex="1" parent="rlQCvOb7wK49Swuap4eT-29">
          <mxGeometry y="138" width="392" height="26" as="geometry" />
        </mxCell>
        <mxCell id="rlQCvOb7wK49Swuap4eT-38" value="+ accept_friend_request(user_id: int, friend_id: int): bool" style="text;align=left;verticalAlign=top;spacingLeft=4;spacingRight=4;overflow=hidden;rotatable=0;points=[[0,0.5],[1,0.5]];portConstraint=eastwest;" vertex="1" parent="rlQCvOb7wK49Swuap4eT-29">
          <mxGeometry y="164" width="392" height="26" as="geometry" />
        </mxCell>
        <mxCell id="rlQCvOb7wK49Swuap4eT-39" value="+ remove_friend(user_id: int, friend_id: int): bool" style="text;align=left;verticalAlign=top;spacingLeft=4;spacingRight=4;overflow=hidden;rotatable=0;points=[[0,0.5],[1,0.5]];portConstraint=eastwest;" vertex="1" parent="rlQCvOb7wK49Swuap4eT-29">
          <mxGeometry y="190" width="392" height="26" as="geometry" />
        </mxCell>
        <mxCell id="rlQCvOb7wK49Swuap4eT-40" value="+ get_friend_list(user_id: int): list[int]" style="text;align=left;verticalAlign=top;spacingLeft=4;spacingRight=4;overflow=hidden;rotatable=0;points=[[0,0.5],[1,0.5]];portConstraint=eastwest;" vertex="1" parent="rlQCvOb7wK49Swuap4eT-29">
          <mxGeometry y="216" width="392" height="26" as="geometry" />
        </mxCell>
        <mxCell id="rlQCvOb7wK49Swuap4eT-41" value="+ block_user(user_id: int, blocked_id: int): bool" style="text;align=left;verticalAlign=top;spacingLeft=4;spacingRight=4;overflow=hidden;rotatable=0;points=[[0,0.5],[1,0.5]];portConstraint=eastwest;" vertex="1" parent="rlQCvOb7wK49Swuap4eT-29">
          <mxGeometry y="242" width="392" height="26" as="geometry" />
        </mxCell>
        <mxCell id="rlQCvOb7wK49Swuap4eT-43" value="- check_existing_request(user_id: int, friend_id: int): bool" style="text;align=left;verticalAlign=top;spacingLeft=4;spacingRight=4;overflow=hidden;rotatable=0;points=[[0,0.5],[1,0.5]];portConstraint=eastwest;" vertex="1" parent="rlQCvOb7wK49Swuap4eT-29">
          <mxGeometry y="268" width="392" height="26" as="geometry" />
        </mxCell>
        <mxCell id="rlQCvOb7wK49Swuap4eT-44" value="" style="endArrow=open;endFill=1;endSize=12;html=1;rounded=1;exitX=1;exitY=0.5;exitDx=0;exitDy=0;entryX=0.004;entryY=1.035;entryDx=0;entryDy=0;strokeWidth=2;curved=0;entryPerimeter=0;" edge="1" parent="WIyWlLk6GJQsqaUBKTNV-1" source="rlQCvOb7wK49Swuap4eT-19" target="rlQCvOb7wK49Swuap4eT-37">
          <mxGeometry width="160" relative="1" as="geometry">
            <mxPoint x="1140" y="230" as="sourcePoint" />
            <mxPoint x="1300" y="230" as="targetPoint" />
            <Array as="points">
              <mxPoint x="970" y="215" />
              <mxPoint x="970" y="205" />
            </Array>
          </mxGeometry>
        </mxCell>
        <mxCell id="rlQCvOb7wK49Swuap4eT-79" value="+GameHistory" style="swimlane;fontStyle=0;align=center;verticalAlign=top;childLayout=stackLayout;horizontal=1;startSize=26;horizontalStack=0;resizeParent=1;resizeLast=0;collapsible=1;marginBottom=0;rounded=0;shadow=0;strokeWidth=1;" vertex="1" parent="WIyWlLk6GJQsqaUBKTNV-1">
          <mxGeometry x="491" y="474" width="450" height="306" as="geometry">
            <mxRectangle x="508" y="120" width="160" height="26" as="alternateBounds" />
          </mxGeometry>
        </mxCell>
        <mxCell id="rlQCvOb7wK49Swuap4eT-80" value="- match_id: int" style="text;align=left;verticalAlign=top;spacingLeft=4;spacingRight=4;overflow=hidden;rotatable=0;points=[[0,0.5],[1,0.5]];portConstraint=eastwest;" vertex="1" parent="rlQCvOb7wK49Swuap4eT-79">
          <mxGeometry y="26" width="450" height="26" as="geometry" />
        </mxCell>
        <mxCell id="rlQCvOb7wK49Swuap4eT-81" value="- user_id: int" style="text;align=left;verticalAlign=top;spacingLeft=4;spacingRight=4;overflow=hidden;rotatable=0;points=[[0,0.5],[1,0.5]];portConstraint=eastwest;rounded=0;shadow=0;html=0;" vertex="1" parent="rlQCvOb7wK49Swuap4eT-79">
          <mxGeometry y="52" width="450" height="26" as="geometry" />
        </mxCell>
        <mxCell id="rlQCvOb7wK49Swuap4eT-82" value="- opponent_id: int" style="text;align=left;verticalAlign=top;spacingLeft=4;spacingRight=4;overflow=hidden;rotatable=0;points=[[0,0.5],[1,0.5]];portConstraint=eastwest;rounded=0;shadow=0;html=0;" vertex="1" parent="rlQCvOb7wK49Swuap4eT-79">
          <mxGeometry y="78" width="450" height="26" as="geometry" />
        </mxCell>
        <mxCell id="rlQCvOb7wK49Swuap4eT-83" value="- game_id: int" style="text;align=left;verticalAlign=top;spacingLeft=4;spacingRight=4;overflow=hidden;rotatable=0;points=[[0,0.5],[1,0.5]];portConstraint=eastwest;rounded=0;shadow=0;html=0;" vertex="1" parent="rlQCvOb7wK49Swuap4eT-79">
          <mxGeometry y="104" width="450" height="26" as="geometry" />
        </mxCell>
        <mxCell id="rlQCvOb7wK49Swuap4eT-84" value="- result: str" style="text;align=left;verticalAlign=top;spacingLeft=4;spacingRight=4;overflow=hidden;rotatable=0;points=[[0,0.5],[1,0.5]];portConstraint=eastwest;rounded=0;shadow=0;html=0;" vertex="1" parent="rlQCvOb7wK49Swuap4eT-79">
          <mxGeometry y="130" width="450" height="30" as="geometry" />
        </mxCell>
        <mxCell id="rlQCvOb7wK49Swuap4eT-85" value="- timestamp: datetime" style="text;align=left;verticalAlign=top;spacingLeft=4;spacingRight=4;overflow=hidden;rotatable=0;points=[[0,0.5],[1,0.5]];portConstraint=eastwest;rounded=0;shadow=0;html=0;" vertex="1" parent="rlQCvOb7wK49Swuap4eT-79">
          <mxGeometry y="160" width="450" height="30" as="geometry" />
        </mxCell>
        <mxCell id="rlQCvOb7wK49Swuap4eT-86" value="" style="line;html=1;strokeWidth=1;align=left;verticalAlign=middle;spacingTop=-1;spacingLeft=3;spacingRight=3;rotatable=0;labelPosition=right;points=[];portConstraint=eastwest;" vertex="1" parent="rlQCvOb7wK49Swuap4eT-79">
          <mxGeometry y="190" width="450" height="8" as="geometry" />
        </mxCell>
        <mxCell id="rlQCvOb7wK49Swuap4eT-87" value="+ record_match(user_id: int, opponent_id: int, game_id: int, result: str): bool" style="text;align=left;verticalAlign=top;spacingLeft=4;spacingRight=4;overflow=hidden;rotatable=0;points=[[0,0.5],[1,0.5]];portConstraint=eastwest;" vertex="1" parent="rlQCvOb7wK49Swuap4eT-79">
          <mxGeometry y="198" width="450" height="26" as="geometry" />
        </mxCell>
        <mxCell id="rlQCvOb7wK49Swuap4eT-88" value="+ get_match_history(user_id: int): list" style="text;align=left;verticalAlign=top;spacingLeft=4;spacingRight=4;overflow=hidden;rotatable=0;points=[[0,0.5],[1,0.5]];portConstraint=eastwest;" vertex="1" parent="rlQCvOb7wK49Swuap4eT-79">
          <mxGeometry y="224" width="450" height="26" as="geometry" />
        </mxCell>
        <mxCell id="rlQCvOb7wK49Swuap4eT-89" value="+ get_match_details(match_id: int): dict" style="text;align=left;verticalAlign=top;spacingLeft=4;spacingRight=4;overflow=hidden;rotatable=0;points=[[0,0.5],[1,0.5]];portConstraint=eastwest;" vertex="1" parent="rlQCvOb7wK49Swuap4eT-79">
          <mxGeometry y="250" width="450" height="26" as="geometry" />
        </mxCell>
        <mxCell id="rlQCvOb7wK49Swuap4eT-90" value="- format_match_history(matches: list): dict " style="text;align=left;verticalAlign=top;spacingLeft=4;spacingRight=4;overflow=hidden;rotatable=0;points=[[0,0.5],[1,0.5]];portConstraint=eastwest;" vertex="1" parent="rlQCvOb7wK49Swuap4eT-79">
          <mxGeometry y="276" width="450" height="26" as="geometry" />
        </mxCell>
        <mxCell id="rlQCvOb7wK49Swuap4eT-95" value="+RankingSystem" style="swimlane;fontStyle=0;align=center;verticalAlign=top;childLayout=stackLayout;horizontal=1;startSize=26;horizontalStack=0;resizeParent=1;resizeLast=0;collapsible=1;marginBottom=0;rounded=0;shadow=0;strokeWidth=1;" vertex="1" parent="WIyWlLk6GJQsqaUBKTNV-1">
          <mxGeometry x="1021" y="474" width="450" height="276" as="geometry">
            <mxRectangle x="508" y="120" width="160" height="26" as="alternateBounds" />
          </mxGeometry>
        </mxCell>
        <mxCell id="rlQCvOb7wK49Swuap4eT-96" value="- ranking_id: int" style="text;align=left;verticalAlign=top;spacingLeft=4;spacingRight=4;overflow=hidden;rotatable=0;points=[[0,0.5],[1,0.5]];portConstraint=eastwest;" vertex="1" parent="rlQCvOb7wK49Swuap4eT-95">
          <mxGeometry y="26" width="450" height="26" as="geometry" />
        </mxCell>
        <mxCell id="rlQCvOb7wK49Swuap4eT-97" value="- user_id: int" style="text;align=left;verticalAlign=top;spacingLeft=4;spacingRight=4;overflow=hidden;rotatable=0;points=[[0,0.5],[1,0.5]];portConstraint=eastwest;rounded=0;shadow=0;html=0;" vertex="1" parent="rlQCvOb7wK49Swuap4eT-95">
          <mxGeometry y="52" width="450" height="26" as="geometry" />
        </mxCell>
        <mxCell id="rlQCvOb7wK49Swuap4eT-98" value="- game_id: int" style="text;align=left;verticalAlign=top;spacingLeft=4;spacingRight=4;overflow=hidden;rotatable=0;points=[[0,0.5],[1,0.5]];portConstraint=eastwest;rounded=0;shadow=0;html=0;" vertex="1" parent="rlQCvOb7wK49Swuap4eT-95">
          <mxGeometry y="78" width="450" height="26" as="geometry" />
        </mxCell>
        <mxCell id="rlQCvOb7wK49Swuap4eT-99" value="- rank_score: int" style="text;align=left;verticalAlign=top;spacingLeft=4;spacingRight=4;overflow=hidden;rotatable=0;points=[[0,0.5],[1,0.5]];portConstraint=eastwest;rounded=0;shadow=0;html=0;" vertex="1" parent="rlQCvOb7wK49Swuap4eT-95">
          <mxGeometry y="104" width="450" height="26" as="geometry" />
        </mxCell>
        <mxCell id="rlQCvOb7wK49Swuap4eT-100" value="- rank_position: int" style="text;align=left;verticalAlign=top;spacingLeft=4;spacingRight=4;overflow=hidden;rotatable=0;points=[[0,0.5],[1,0.5]];portConstraint=eastwest;rounded=0;shadow=0;html=0;" vertex="1" parent="rlQCvOb7wK49Swuap4eT-95">
          <mxGeometry y="130" width="450" height="30" as="geometry" />
        </mxCell>
        <mxCell id="rlQCvOb7wK49Swuap4eT-102" value="" style="line;html=1;strokeWidth=1;align=left;verticalAlign=middle;spacingTop=-1;spacingLeft=3;spacingRight=3;rotatable=0;labelPosition=right;points=[];portConstraint=eastwest;" vertex="1" parent="rlQCvOb7wK49Swuap4eT-95">
          <mxGeometry y="160" width="450" height="8" as="geometry" />
        </mxCell>
        <mxCell id="rlQCvOb7wK49Swuap4eT-103" value="+ update_ranking(user_id: int, game_id: int, result: str): bool" style="text;align=left;verticalAlign=top;spacingLeft=4;spacingRight=4;overflow=hidden;rotatable=0;points=[[0,0.5],[1,0.5]];portConstraint=eastwest;" vertex="1" parent="rlQCvOb7wK49Swuap4eT-95">
          <mxGeometry y="168" width="450" height="26" as="geometry" />
        </mxCell>
        <mxCell id="rlQCvOb7wK49Swuap4eT-104" value="+ get_leaderboard(): list" style="text;align=left;verticalAlign=top;spacingLeft=4;spacingRight=4;overflow=hidden;rotatable=0;points=[[0,0.5],[1,0.5]];portConstraint=eastwest;" vertex="1" parent="rlQCvOb7wK49Swuap4eT-95">
          <mxGeometry y="194" width="450" height="26" as="geometry" />
        </mxCell>
        <mxCell id="rlQCvOb7wK49Swuap4eT-105" value="+ get_user_rank(user_id: int): int " style="text;align=left;verticalAlign=top;spacingLeft=4;spacingRight=4;overflow=hidden;rotatable=0;points=[[0,0.5],[1,0.5]];portConstraint=eastwest;" vertex="1" parent="rlQCvOb7wK49Swuap4eT-95">
          <mxGeometry y="220" width="450" height="26" as="geometry" />
        </mxCell>
        <mxCell id="rlQCvOb7wK49Swuap4eT-106" value="- calculate_rank_score(user_id: int, result: str): int  " style="text;align=left;verticalAlign=top;spacingLeft=4;spacingRight=4;overflow=hidden;rotatable=0;points=[[0,0.5],[1,0.5]];portConstraint=eastwest;" vertex="1" parent="rlQCvOb7wK49Swuap4eT-95">
          <mxGeometry y="246" width="450" height="26" as="geometry" />
        </mxCell>
        <mxCell id="rlQCvOb7wK49Swuap4eT-108" value="" style="endArrow=open;endFill=1;endSize=12;html=1;rounded=1;exitX=1;exitY=0.5;exitDx=0;exitDy=0;entryX=0;entryY=0.5;entryDx=0;entryDy=0;strokeWidth=2;curved=0;dashed=1;" edge="1" parent="WIyWlLk6GJQsqaUBKTNV-1" source="rlQCvOb7wK49Swuap4eT-84" target="rlQCvOb7wK49Swuap4eT-100">
          <mxGeometry width="160" relative="1" as="geometry">
            <mxPoint x="727" y="403" as="sourcePoint" />
            <mxPoint x="726" y="484" as="targetPoint" />
            <Array as="points" />
          </mxGeometry>
        </mxCell>
        <mxCell id="rlQCvOb7wK49Swuap4eT-109" value="" style="endArrow=open;endFill=1;endSize=12;html=1;rounded=1;exitX=1;exitY=0.5;exitDx=0;exitDy=0;strokeWidth=2;curved=0;entryX=0.5;entryY=0;entryDx=0;entryDy=0;" edge="1" parent="WIyWlLk6GJQsqaUBKTNV-1" source="rlQCvOb7wK49Swuap4eT-19" target="rlQCvOb7wK49Swuap4eT-95">
          <mxGeometry width="160" relative="1" as="geometry">
            <mxPoint x="922" y="225" as="sourcePoint" />
            <mxPoint x="1240" y="470" as="targetPoint" />
            <Array as="points">
              <mxPoint x="970" y="215" />
              <mxPoint x="970" y="430" />
              <mxPoint x="1240" y="430" />
            </Array>
          </mxGeometry>
        </mxCell>
        <mxCell id="rlQCvOb7wK49Swuap4eT-110" value="" style="endArrow=open;html=1;endSize=12;startArrow=diamondThin;startSize=14;startFill=0;edgeStyle=orthogonalEdgeStyle;align=left;verticalAlign=bottom;rounded=1;strokeWidth=2;exitX=0.508;exitY=0.987;exitDx=0;exitDy=0;exitPerimeter=0;entryX=0.5;entryY=0;entryDx=0;entryDy=0;curved=0;" edge="1" parent="WIyWlLk6GJQsqaUBKTNV-1" source="rlQCvOb7wK49Swuap4eT-42" target="rlQCvOb7wK49Swuap4eT-79">
          <mxGeometry x="-1" y="3" relative="1" as="geometry">
            <mxPoint x="680" y="440" as="sourcePoint" />
            <mxPoint x="840" y="440" as="targetPoint" />
          </mxGeometry>
        </mxCell>
      </root>
    </mxGraphModel>
  </diagram>
</mxfile>
